<svg width="512" height="512" viewBox="0 0 100 100" fill="none" xmlns="http://www.w3.org/2000/svg">
  <defs>
    <linearGradient id="mainGrad" x1="0%" y1="0%" x2="100%" y2="100%">
      <stop offset="0%" style="stop-color:#8C8CFF;stop-opacity:1" />
      <stop offset="100%" style="stop-color:#D89DFF;stop-opacity:1" />
    </linearGradient>
    <filter id="glow" x="-20%" y="-20%" width="140%" height="140%">
      <feGaussianBlur stdDeviation="2" result="blur" />
      <feComposite in="SourceGraphic" in2="blur" operator="over" />
    </filter>
  </defs>
  <path d="M10 30C10 10 10 10 30 10H70C90 10 90 10 90 30V70C90 90 90 90 70 90H30C10 90 10 90 10 70V30Z" fill="url(#mainGrad)" />
  <circle cx="85" cy="15" r="25" fill="white" fill-opacity="0.1" />
  <circle cx="15" cy="85" r="15" fill="white" fill-opacity="0.05" />
  <g filter="url(#glow)">
    <path d="M25 65C35 65 30 45 42 45C54 45 48 58 60 58C72 58 65 30 75 30" stroke="white" stroke-width="7" stroke-linecap="round" stroke-linejoin="round" />
    <path d="M68 30H75V37" stroke="white" stroke-width="7" stroke-linecap="round" stroke-linejoin="round" />
    <circle cx="25" cy="65" r="3.5" fill="white" />
    <circle cx="42" cy="45" r="3.5" fill="white" />
    <circle cx="60" cy="58" r="3.5" fill="white" />
    <circle cx="75" cy="30" r="3.5" fill="white" />
  </g>
</svg>
